<svg xmlns="http://www.w3.org/2000/svg" viewBox="0 0 640 374" width="640" height="374" font-family="Helvetica Neue, Helvetica, Arial, sans-serif"><defs><marker id="s-money" viewBox="0 0 10 10" refX="9" refY="5" markerWidth="7" markerHeight="7" orient="auto-start-reverse"><path d="M0,0 L10,5 L0,10 z" fill="#2f855a"/></marker><marker id="s-data" viewBox="0 0 10 10" refX="9" refY="5" markerWidth="7" markerHeight="7" orient="auto-start-reverse"><path d="M0,0 L10,5 L0,10 z" fill="#1f6f8b"/></marker><marker id="s-ctrl" viewBox="0 0 10 10" refX="9" refY="5" markerWidth="7" markerHeight="7" orient="auto-start-reverse"><path d="M0,0 L10,5 L0,10 z" fill="#b7791f"/></marker><marker id="s-risk" viewBox="0 0 10 10" refX="9" refY="5" markerWidth="7" markerHeight="7" orient="auto-start-reverse"><path d="M0,0 L10,5 L0,10 z" fill="#c53030"/></marker></defs><rect width="100%" height="100%" fill="white"/><line x1="95.0" y1="52" x2="95.0" y2="354" stroke="#c3ccd6" stroke-width="1" stroke-dasharray="3 3"/>
<rect x="24.0" y="16" width="142.0" height="36" rx="4" fill="#eef0f3" stroke="#5b6b7f" stroke-width="1.4"/>
<text x="95.0" y="38.0" font-size="12" text-anchor="middle" fill="#1b2a41" font-weight="bold">Member app</text>
<line x1="245.0" y1="52" x2="245.0" y2="354" stroke="#c3ccd6" stroke-width="1" stroke-dasharray="3 3"/>
<rect x="174.0" y="16" width="142.0" height="36" rx="4" fill="#fdf3e3" stroke="#b7791f" stroke-width="1.4"/>
<text x="245.0" y="38.0" font-size="12" text-anchor="middle" fill="#1b2a41" font-weight="bold">Helm backend</text>
<line x1="395.0" y1="52" x2="395.0" y2="354" stroke="#c3ccd6" stroke-width="1" stroke-dasharray="3 3"/>
<rect x="324.0" y="16" width="142.0" height="36" rx="4" fill="#eaf5ec" stroke="#2f855a" stroke-width="1.4"/>
<text x="395.0" y="38.0" font-size="12" text-anchor="middle" fill="#1b2a41" font-weight="bold">Onyx contracts</text>
<line x1="545.0" y1="52" x2="545.0" y2="354" stroke="#c3ccd6" stroke-width="1" stroke-dasharray="3 3"/>
<rect x="474.0" y="16" width="142.0" height="36" rx="4" fill="#eef0f3" stroke="#5b6b7f" stroke-width="1.4"/>
<text x="545.0" y="38.0" font-size="12" text-anchor="middle" fill="#1b2a41" font-weight="bold">Vault operator</text>
<line x1="95.0" y1="70" x2="242.0" y2="70" stroke="#1f6f8b" stroke-width="1.4" stroke-dasharray="4 3" marker-end="url(#s-data)"/>
<rect x="83.39999999999999" y="55" width="173.20000000000002" height="13" fill="white" opacity="0.9"/>
<text x="170.0" y="66" font-size="10.5" text-anchor="middle" fill="#1f6f8b">accept vault terms (version)</text>
<line x1="245.0" y1="100" x2="392.0" y2="100" stroke="#b7791f" stroke-width="1.4" marker-end="url(#s-ctrl)"/>
<rect x="248.14999999999998" y="85" width="143.70000000000002" height="13" fill="white" opacity="0.9"/>
<text x="320.0" y="96" font-size="10.5" text-anchor="middle" fill="#b7791f">add wallet to allowlist</text>
<line x1="95.0" y1="130" x2="392.0" y2="130" stroke="#2f855a" stroke-width="1.4" marker-end="url(#s-money)"/>
<rect x="182.0" y="115" width="126.0" height="13" fill="white" opacity="0.9"/>
<text x="245.0" y="126" font-size="10.5" text-anchor="middle" fill="#2f855a">approve exact amount</text>
<line x1="95.0" y1="160" x2="392.0" y2="160" stroke="#2f855a" stroke-width="1.4" marker-end="url(#s-money)"/>
<rect x="199.7" y="145" width="90.60000000000001" height="13" fill="white" opacity="0.9"/>
<text x="245.0" y="156" font-size="10.5" text-anchor="middle" fill="#2f855a">requestDeposit</text>
<line x1="395.0" y1="190" x2="248.0" y2="190" stroke="#1f6f8b" stroke-width="1.4" stroke-dasharray="4 3" marker-end="url(#s-data)"/>
<rect x="206.85" y="175" width="226.3" height="13" fill="white" opacity="0.9"/>
<text x="320.0" y="186" font-size="10.5" text-anchor="middle" fill="#1f6f8b">DepositRequest(requestId) via indexer</text>
<line x1="545.0" y1="220" x2="398.0" y2="220" stroke="#b7791f" stroke-width="1.4" marker-end="url(#s-ctrl)"/>
<rect x="342.1" y="205" width="255.8" height="13" fill="white" opacity="0.9"/>
<text x="470.0" y="216" font-size="10.5" text-anchor="middle" fill="#b7791f">update valuation; execute deposit requests</text>
<line x1="395.0" y1="250" x2="248.0" y2="250" stroke="#1f6f8b" stroke-width="1.4" stroke-dasharray="4 3" marker-end="url(#s-data)"/>
<rect x="195.05" y="235" width="249.9" height="13" fill="white" opacity="0.9"/>
<text x="320.0" y="246" font-size="10.5" text-anchor="middle" fill="#1f6f8b">DepositRequestExecuted(requestId, shares)</text>
<path d="M245.0,276 h28 v12 h-26" fill="none" stroke="#b7791f" stroke-width="1.3" marker-end="url(#s-ctrl)"/>
<text x="279.0" y="286" font-size="10.5" fill="#b7791f">position confirmed; business event</text>
<line x1="245.0" y1="318" x2="98.0" y2="318" stroke="#1f6f8b" stroke-width="1.4" stroke-dasharray="4 3" marker-end="url(#s-data)"/>
<rect x="86.35" y="303" width="167.3" height="13" fill="white" opacity="0.9"/>
<text x="170.0" y="314" font-size="10.5" text-anchor="middle" fill="#1f6f8b">position and valuation date</text></svg>