<svg xmlns="http://www.w3.org/2000/svg" viewBox="0 0 640 382" width="640" height="382" font-family="Helvetica Neue, Helvetica, Arial, sans-serif"><defs><marker id="s-money" viewBox="0 0 10 10" refX="9" refY="5" markerWidth="7" markerHeight="7" orient="auto-start-reverse"><path d="M0,0 L10,5 L0,10 z" fill="#2f855a"/></marker><marker id="s-data" viewBox="0 0 10 10" refX="9" refY="5" markerWidth="7" markerHeight="7" orient="auto-start-reverse"><path d="M0,0 L10,5 L0,10 z" fill="#1f6f8b"/></marker><marker id="s-ctrl" viewBox="0 0 10 10" refX="9" refY="5" markerWidth="7" markerHeight="7" orient="auto-start-reverse"><path d="M0,0 L10,5 L0,10 z" fill="#b7791f"/></marker><marker id="s-risk" viewBox="0 0 10 10" refX="9" refY="5" markerWidth="7" markerHeight="7" orient="auto-start-reverse"><path d="M0,0 L10,5 L0,10 z" fill="#c53030"/></marker></defs><rect width="100%" height="100%" fill="white"/><line x1="80.0" y1="52" x2="80.0" y2="362" stroke="#c3ccd6" stroke-width="1" stroke-dasharray="3 3"/>
<rect x="24.0" y="16" width="112.0" height="36" rx="4" fill="#fdf3e3" stroke="#b7791f" stroke-width="1.4"/>
<text x="80.0" y="38.0" font-size="12" text-anchor="middle" fill="#1b2a41" font-weight="bold">Helm backend</text>
<line x1="200.0" y1="52" x2="200.0" y2="362" stroke="#c3ccd6" stroke-width="1" stroke-dasharray="3 3"/>
<rect x="144.0" y="16" width="112.0" height="36" rx="4" fill="#e6f0f5" stroke="#1f6f8b" stroke-width="1.4"/>
<text x="200.0" y="38.0" font-size="12" text-anchor="middle" fill="#1b2a41" font-weight="bold">PillarsHub</text>
<line x1="320.0" y1="52" x2="320.0" y2="362" stroke="#c3ccd6" stroke-width="1" stroke-dasharray="3 3"/>
<rect x="264.0" y="16" width="112.0" height="36" rx="4" fill="#eef0f3" stroke="#5b6b7f" stroke-width="1.4"/>
<text x="320.0" y="38.0" font-size="12" text-anchor="middle" fill="#1b2a41" font-weight="bold">Finance approver</text>
<line x1="440.0" y1="52" x2="440.0" y2="362" stroke="#c3ccd6" stroke-width="1" stroke-dasharray="3 3"/>
<rect x="384.0" y="16" width="112.0" height="36" rx="4" fill="#eaf5ec" stroke="#2f855a" stroke-width="1.4"/>
<text x="440.0" y="38.0" font-size="12" text-anchor="middle" fill="#1b2a41" font-weight="bold">Treasury Safe</text>
<line x1="560.0" y1="52" x2="560.0" y2="362" stroke="#c3ccd6" stroke-width="1" stroke-dasharray="3 3"/>
<rect x="504.0" y="16" width="112.0" height="36" rx="4" fill="#eaf5ec" stroke="#2f855a" stroke-width="1.4"/>
<text x="560.0" y="38.0" font-size="12" text-anchor="middle" fill="#1b2a41" font-weight="bold">Builder wallet</text>
<line x1="80.0" y1="70" x2="197.0" y2="70" stroke="#1f6f8b" stroke-width="1.4" stroke-dasharray="4 3" marker-end="url(#s-data)"/>
<rect x="35.69999999999999" y="55" width="208.60000000000002" height="13" fill="white" opacity="0.9"/>
<text x="140.0" y="66" font-size="10.5" text-anchor="middle" fill="#1f6f8b">post eligible event (chain:tx:log)</text>
<path d="M200.0,96 h28 v12 h-26" fill="none" stroke="#b7791f" stroke-width="1.3" marker-end="url(#s-ctrl)"/>
<text x="234.0" y="106" font-size="10.5" fill="#b7791f">tính Commission 3 level</text>
<line x1="320.0" y1="138" x2="203.0" y2="138" stroke="#b7791f" stroke-width="1.4" marker-end="url(#s-ctrl)"/>
<rect x="176.35" y="123" width="167.3" height="13" fill="white" opacity="0.9"/>
<text x="260.0" y="134" font-size="10.5" text-anchor="middle" fill="#b7791f">close period, release bonus</text>
<line x1="200.0" y1="168" x2="83.0" y2="168" stroke="#1f6f8b" stroke-width="1.4" stroke-dasharray="4 3" marker-end="url(#s-data)"/>
<rect x="50.44999999999999" y="153" width="179.10000000000002" height="13" fill="white" opacity="0.9"/>
<text x="140.0" y="164" font-size="10.5" text-anchor="middle" fill="#1f6f8b">payout batch (callback token)</text>
<path d="M80.0,194 h28 v12 h-26" fill="none" stroke="#b7791f" stroke-width="1.3" marker-end="url(#s-ctrl)"/>
<text x="114.0" y="204" font-size="10.5" fill="#b7791f">validate token, payee status, hold</text>
<line x1="80.0" y1="236" x2="437.0" y2="236" stroke="#b7791f" stroke-width="1.4" marker-end="url(#s-ctrl)"/>
<rect x="194.05" y="221" width="131.9" height="13" fill="white" opacity="0.9"/>
<text x="260.0" y="232" font-size="10.5" text-anchor="middle" fill="#b7791f">propose transfer USDC</text>
<line x1="320.0" y1="266" x2="437.0" y2="266" stroke="#b7791f" stroke-width="1.4" marker-end="url(#s-ctrl)"/>
<rect x="337.65" y="251" width="84.7" height="13" fill="white" opacity="0.9"/>
<text x="380.0" y="262" font-size="10.5" text-anchor="middle" fill="#b7791f">approve và ký</text>
<line x1="440.0" y1="296" x2="557.0" y2="296" stroke="#2f855a" stroke-width="1.4" marker-end="url(#s-money)"/>
<rect x="457.65" y="281" width="84.7" height="13" fill="white" opacity="0.9"/>
<text x="500.0" y="292" font-size="10.5" text-anchor="middle" fill="#2f855a">transfer USDC</text>
<line x1="80.0" y1="326" x2="197.0" y2="326" stroke="#1f6f8b" stroke-width="1.4" stroke-dasharray="4 3" marker-end="url(#s-data)"/>
<rect x="35.69999999999999" y="311" width="208.60000000000002" height="13" fill="white" opacity="0.9"/>
<text x="140.0" y="322" font-size="10.5" text-anchor="middle" fill="#1f6f8b">report Success / Failure / Pending</text></svg>